<?xml version="1.0" encoding="utf-8"?>
<!-- Generator: Adobe Illustrator 21.0.2, SVG Export Plug-In . SVG Version: 6.00 Build 0)  -->
<svg version="1.1" id="Layer_1" xmlns="http://www.w3.org/2000/svg" xmlns:xlink="http://www.w3.org/1999/xlink" x="0px" y="0px"
	 viewBox="0 0 86.9 86.9" style="enable-background:new 0 0 86.9 86.9;" xml:space="preserve">
<style type="text/css">
	.st0{fill:#FFFFFF;}
	.st1{fill:#231F20;}
</style>
<rect x="-6.7" y="-6.7" class="st0" width="98.2" height="98.2"/>
<title>draft-logo</title>
<path class="st1" d="M19.6,17.5h17.1c4,0,8,0.4,11.8,1.4c3.5,0.8,6.8,2.4,9.8,4.5c2.8,2.1,5.1,4.9,6.6,8.1c1.7,3.8,2.6,7.9,2.4,12.1
	c0.1,3.8-0.7,7.6-2.4,11.1c-1.5,3.1-3.7,5.9-6.4,8c-2.8,2.2-5.9,3.9-9.3,4.9c-3.6,1.1-7.3,1.7-11,1.7H19.6V17.5z M31,58.8h5.9
	c2.5,0,4.9-0.3,7.3-0.8c2.1-0.5,4.1-1.4,5.9-2.7c1.7-1.3,3-3,3.9-4.9c1-2.3,1.5-4.9,1.4-7.4c0.1-2.3-0.4-4.6-1.4-6.6
	c-0.9-1.8-2.2-3.4-3.8-4.6c-1.7-1.3-3.6-2.2-5.7-2.7c-2.2-0.6-4.5-0.9-6.8-0.9H31V58.8z"/>
</svg>
